<svg width="49" height="43" viewBox="0 0 49 43" fill="none" xmlns="http://www.w3.org/2000/svg">
<path fill-rule="evenodd" clip-rule="evenodd" d="M46.1279 3L41.2843 7.80391L34.6031 14.4252L19.5363 29.3684L14 22.827L19.5168 25.0005L33.8121 13.1817L40.8717 7.34694L46.1279 3Z" fill="url(#paint0_linear_54_84)"/>
<path fill-rule="evenodd" clip-rule="evenodd" d="M28.333 3.44198C28.5093 3.44387 28.6857 3.44777 28.8625 3.45355C29.1832 3.46395 29.5045 3.48096 29.825 3.50458C31.1168 3.59765 32.3873 3.79572 33.6038 4.14639C33.9872 4.25505 34.361 4.37765 34.7226 4.51442C35.0473 4.63702 35.3609 4.77084 35.6611 4.91635C35.74 4.9545 35.8181 4.9936 35.8951 5.0334C35.9263 5.04946 35.9572 5.06553 35.9881 5.08135C36.0797 5.12824 36.1702 5.17419 36.2594 5.21907C36.385 5.28226 36.5084 5.34356 36.6298 5.4025C38.0114 6.07077 39.1104 6.43656 40.1279 6.43656C40.1603 6.43656 40.1926 6.4362 40.2249 6.43549L40.2291 6.43537C40.2574 6.43455 40.2855 6.43325 40.3137 6.43183C40.3664 6.42912 40.4191 6.42533 40.472 6.42061C40.4762 6.42014 40.4806 6.41967 40.485 6.41943C41.4948 6.32447 42.5035 5.85333 43.69 4.87797C43.6947 4.87407 43.6995 4.87017 43.7042 4.86627C43.7071 4.86379 43.7102 4.86132 43.7132 4.85883L43.7162 4.85624C40.7099 1.68414 36.3146 0.164056 31.5618 0H29.7965C26.2876 0.119882 22.6565 0.93768 19.2992 2.34107C12.628 5.12553 2.95012 13.2241 1 26.8387C1.00815 26.8137 1.0163 26.7885 1.02445 26.7635C5.99124 9.9135 18.0393 5.30954 22.4021 4.13186C22.4648 4.11486 22.5283 4.09808 22.5923 4.08167C22.6389 4.06962 22.6858 4.05781 22.7331 4.046C23.4352 3.8719 24.1926 3.73241 24.9833 3.63155C25.2567 3.59659 25.5341 3.56623 25.8146 3.5406C26.5698 3.47115 27.328 3.43749 28.0624 3.43867C28.1532 3.43891 28.2433 3.4395 28.333 3.44198ZM28.333 3.44198C28.4473 3.44328 28.5616 3.44529 28.6761 3.448C28.5625 3.4447 28.4481 3.44233 28.333 3.44198Z" fill="#716DF2"/>
<path fill-rule="evenodd" clip-rule="evenodd" d="M35.6036 33.1107C35.5874 33.126 35.5712 33.1413 35.5549 33.1565C35.5712 33.1413 35.5874 33.126 35.6036 33.1107ZM7.14897 25.4229C7.14933 25.4217 7.1498 25.4205 7.15027 25.4192C7.1498 25.4204 7.14933 25.4217 7.14897 25.4229ZM47.7136 5.04028C47.6954 5.06639 47.6772 5.09261 47.6591 5.11871C47.6772 5.09261 47.6954 5.06639 47.7136 5.04028ZM47.4282 5.45568C47.4236 5.46241 47.419 5.46926 47.4144 5.47599C47.3908 5.51095 47.3673 5.54591 47.3438 5.58076C47.3225 5.61217 47.3014 5.64371 47.2804 5.67501C47.3291 5.60225 47.3784 5.52914 47.4282 5.45568ZM35.6588 33.0585C35.6427 33.0738 35.6265 33.0892 35.6102 33.1045C35.608 33.1066 35.6058 33.1087 35.6036 33.1107C35.5874 33.126 35.5712 33.1413 35.555 33.1565C35.5282 33.1817 35.5014 33.2067 35.4746 33.2317C35.4486 33.2558 35.4226 33.2801 35.3965 33.3041C35.3943 33.3062 35.3921 33.3083 35.3898 33.3103C35.3859 33.314 35.3819 33.3176 35.3779 33.3213C34.4461 34.1802 33.4307 34.9899 32.3371 35.7297C32.3358 35.7304 32.3346 35.7313 32.3335 35.732C32.1437 35.8611 31.9514 35.988 31.757 36.1125C31.7547 36.114 31.7525 36.1154 31.7504 36.1167C30.1494 37.1413 28.3922 38.0116 26.4457 38.6835C23.6728 39.6405 20.9044 40.113 18.3529 40.113C13.4309 40.1135 9.31465 38.356 7.51571 34.9296C6.14846 32.325 5.92759 28.7957 7.14897 25.4229C7.14933 25.4217 7.1498 25.4204 7.15027 25.4192C7.15063 25.418 7.1511 25.4167 7.15146 25.4155C7.1563 25.4026 7.16102 25.3896 7.16575 25.3767C7.16894 25.3678 7.17224 25.3589 7.17555 25.35C7.18512 25.3237 7.1948 25.2974 7.20461 25.2713C7.30925 24.9922 7.42382 24.7144 7.54902 24.4388C7.55622 24.4231 7.56331 24.4074 7.57051 24.3918C7.6448 24.229 7.72193 24.0679 7.80106 23.9082C7.80343 23.9035 7.80579 23.8988 7.80827 23.894C7.81217 23.8861 7.8163 23.8782 7.8202 23.8703C9.2276 21.0947 11.6882 18.5481 15.3799 16.8738C9.48461 18.0353 4.40361 25.2209 4.98259 32.0412C5.50027 38.1297 10.8516 42.7492 19.4516 42.7492C22.4408 42.7492 25.823 42.1909 29.5306 40.942C44.5287 35.8937 49.5003 21.7001 47.5497 12.1136V12.0921C47.1521 8.72155 46.9116 6.59722 47.7136 5.04028C47.6954 5.06639 47.6772 5.09261 47.6591 5.11871C47.6209 5.17398 47.5828 5.22914 47.5452 5.28406C47.5436 5.28631 47.5421 5.28867 47.5404 5.29091C47.5386 5.29387 47.5365 5.29682 47.5345 5.29965C47.5329 5.30202 47.5313 5.30438 47.5296 5.30674C47.497 5.35458 47.4645 5.40229 47.4324 5.44965C47.431 5.45166 47.4297 5.45367 47.4282 5.45568C47.4236 5.46241 47.419 5.46926 47.4144 5.47599C47.3909 5.51095 47.3673 5.54591 47.3438 5.58076C47.3225 5.61217 47.3014 5.64371 47.2795 5.67442C47.2286 5.75001 47.1786 5.82536 47.1299 5.90072C47.0711 5.98954 47.0132 6.07777 46.9569 6.16611C45.7133 8.08293 44.8783 9.73105 44.2994 11.2216C44.2991 11.2221 44.2989 11.2228 44.2988 11.2233C43.748 12.6676 43.3652 14.1576 43.0961 15.8506C43.0741 15.9891 43.0528 16.129 43.0324 16.2704C43.031 16.2795 43.0297 16.2884 43.0284 16.2975C43.0283 16.2983 43.0281 16.2994 43.028 16.3002C43.0272 16.3063 43.0263 16.3124 43.0253 16.3184C43.0224 16.3392 43.0195 16.36 43.0165 16.3808C43.0162 16.3832 43.0159 16.3856 43.0154 16.388C43.0154 16.3886 43.0153 16.3891 43.0152 16.3895C43.0102 16.4254 43.0051 16.4613 43.0002 16.4975C42.9997 16.5008 42.9993 16.504 42.9987 16.5073C42.9963 16.5264 42.9937 16.5457 42.9908 16.5649C42.9906 16.5679 42.9901 16.5707 42.9905 16.5739C42.9867 16.6012 42.983 16.6285 42.9796 16.6558C42.9785 16.663 42.9776 16.67 42.9767 16.6771C42.9763 16.6797 42.9761 16.6823 42.9757 16.6849C42.9706 16.7233 42.9655 16.7618 42.9607 16.8002C42.959 16.8118 42.9575 16.8233 42.9561 16.835C42.9534 16.8561 42.9508 16.8773 42.9479 16.8985C42.9478 16.8994 42.9477 16.9004 42.9476 16.9014C42.9474 16.9032 42.9471 16.9051 42.9469 16.907C42.9464 16.9109 42.9459 16.9149 42.9454 16.9189C42.9437 16.9322 42.942 16.9457 42.9403 16.9591C42.9381 16.9763 42.936 16.9935 42.9339 17.0109C42.9329 17.0184 42.932 17.0259 42.9311 17.0334C42.9299 17.0426 42.9287 17.0518 42.9276 17.0609C42.9254 17.0789 42.9233 17.097 42.921 17.1151C42.9208 17.1164 42.9207 17.1179 42.9204 17.1193C42.9193 17.1289 42.9181 17.1385 42.9166 17.148C42.8225 17.9102 42.7392 18.6745 42.6335 19.4654C42.5982 19.7304 42.5604 19.9983 42.5189 20.2702C42.5171 20.2816 42.5153 20.2932 42.5135 20.3047C42.5111 20.3211 42.5085 20.3374 42.506 20.3537C42.5041 20.3653 42.5023 20.3768 42.5004 20.3884C42.4893 20.4606 42.478 20.533 42.4662 20.6057C42.3674 21.2185 42.2455 21.8523 42.0781 22.558C42.0766 22.5636 42.0755 22.5692 42.0742 22.5749C42.0735 22.5771 42.073 22.5795 42.0724 22.5818C41.2525 26.0196 39.0269 29.8578 35.6588 33.0585ZM7.14897 25.4229C7.14401 25.4364 7.13929 25.4499 7.13433 25.4634C7.13917 25.4499 7.14401 25.4364 7.14897 25.4229ZM42.9037 17.256C42.7006 18.929 42.5425 20.619 42.0774 22.5808C42.5425 20.619 42.7006 18.9291 42.9037 17.256ZM47.1302 5.90107C47.0715 5.99001 47.0138 6.07824 46.9569 6.16611C47.0138 6.07824 47.0715 5.99001 47.1302 5.90107ZM47.4323 5.44977C47.431 5.45178 47.4297 5.45367 47.4282 5.45568C47.4295 5.45367 47.431 5.45178 47.4323 5.44977ZM42.9137 17.1737C42.9103 17.2011 42.907 17.2286 42.9037 17.256C42.9071 17.2286 42.9104 17.2011 42.9137 17.1737Z" fill="#716DF2"/>
<path fill-rule="evenodd" clip-rule="evenodd" d="M35.5552 33.1567C35.5714 33.1415 35.5876 33.1262 35.6036 33.1107C35.5874 33.126 35.5713 33.1413 35.5552 33.1567ZM9.66948 21.0994C9.59306 21.1893 9.51818 21.2797 9.4446 21.3706C8.86715 22.0844 8.3751 22.831 7.9642 23.5972C7.91542 23.6881 7.8677 23.7794 7.82128 23.8708C7.81727 23.8787 7.81325 23.8866 7.80924 23.8946C7.80687 23.8994 7.80439 23.904 7.80227 23.9087C8.29278 22.9352 8.91274 21.9895 9.66948 21.0994ZM7.17947 25.3395C7.18798 25.3168 7.19636 25.294 7.20486 25.2713C7.19636 25.294 7.18798 25.3168 7.17947 25.3395ZM7.149 25.4229C7.14404 25.4364 7.13931 25.4499 7.13435 25.4634C7.1392 25.4499 7.14404 25.4364 7.149 25.4229ZM43.666 13.1242C43.6674 13.119 43.6689 13.1139 43.6702 13.1087C43.6689 13.1139 43.6674 13.119 43.666 13.1242ZM47.1278 5.89942C47.2258 5.75202 47.3257 5.60391 47.4273 5.45509C47.4286 5.45308 47.4299 5.45107 47.4313 5.44906C47.4653 5.39922 47.4996 5.34938 47.534 5.29942C47.5361 5.29635 47.5381 5.29351 47.54 5.29068C47.5416 5.28832 47.5432 5.28607 47.5447 5.28383C47.5825 5.22879 47.6207 5.17375 47.659 5.11859C47.6594 5.11812 47.6599 5.11741 47.6602 5.11694C47.6692 5.10394 47.6782 5.09095 47.6872 5.07796C47.6959 5.06532 47.7046 5.0528 47.7136 5.04028C46.9506 5.74068 39.0624 12.3184 38.8778 17.6474C38.8778 17.9114 38.8654 18.1854 38.8408 18.4595C38.5232 22.7305 36.1929 26.8228 32.902 30.0757C32.8989 30.0788 32.8957 30.0819 32.8926 30.0849C28.6751 34.2649 22.8754 37.0628 17.674 37.0579C16.8782 37.0572 16.0965 36.9909 15.3365 36.8538C15.3158 36.8502 15.2949 36.8463 15.2742 36.8425C11.1147 36.0768 8.87117 33.911 8.08432 31.2302C8.03294 31.0558 7.98782 30.8795 7.94873 30.701C7.81798 30.1041 7.75502 29.4854 7.75502 28.8539C7.75502 28.2612 7.81065 27.6574 7.9179 27.0498C7.94436 26.8993 7.97412 26.7483 8.00695 26.5974C8.05715 26.3661 8.11479 26.1345 8.17951 25.9031C8.87082 23.4272 10.3732 20.9716 12.4228 19.0447C12.5222 18.9511 12.623 18.8589 12.725 18.7678C13.0525 18.4757 13.3929 18.197 13.7454 17.9338C14.1776 17.6108 14.6279 17.311 15.0943 17.0381C15.1643 16.997 15.235 16.9566 15.3058 16.9168C15.3175 16.9103 15.3291 16.9037 15.3409 16.8971C15.278 16.9259 15.2152 16.9548 15.153 16.9841C15.0648 17.0254 14.9771 17.0675 14.89 17.1101C14.4071 17.3463 13.9407 17.601 13.4915 17.8732C12.324 18.5813 11.2564 19.4194 10.3199 20.3837C10.2961 20.4082 10.2724 20.4328 10.2487 20.4574C10.2426 20.4639 10.2365 20.4703 10.2304 20.4765C10.2109 20.4971 10.1915 20.5175 10.172 20.5382C9.99972 20.7208 9.832 20.9077 9.66912 21.0992C9.59294 21.1886 9.51794 21.2788 9.4446 21.3706C8.86715 22.0844 8.37499 22.831 7.96325 23.5966C7.91471 23.6875 7.86723 23.7788 7.82069 23.8705C7.81668 23.8783 7.81266 23.8864 7.80876 23.8943C7.80628 23.899 7.80392 23.9037 7.80239 23.9088C7.7216 24.0691 7.64435 24.2301 7.57054 24.3918C7.56333 24.4074 7.55624 24.4231 7.54916 24.4388C7.52731 24.4872 7.50557 24.5357 7.48443 24.5844C7.37589 24.8322 7.2742 25.0839 7.17947 25.3395C7.17817 25.343 7.17687 25.3465 7.17569 25.35C7.17238 25.359 7.16908 25.3678 7.16589 25.3767C7.16105 25.3897 7.15632 25.4027 7.1516 25.4155C7.15124 25.4167 7.15065 25.418 7.1503 25.4192C7.14982 25.4204 7.14935 25.4217 7.149 25.4229C7.14404 25.4364 7.13931 25.4499 7.13435 25.4634C7.13376 25.4653 7.13305 25.4669 7.13258 25.4687C7.13199 25.47 7.13152 25.4713 7.13116 25.4726C7.12644 25.4857 7.12171 25.4989 7.11711 25.5122C5.93411 28.8589 6.16549 32.3502 7.52117 34.9341C9.31798 38.3549 13.4282 40.111 18.3507 40.111C20.9104 40.111 23.6671 39.644 26.4484 38.6797C28.6005 37.9368 30.5709 36.9244 32.337 35.7297C32.3395 35.7281 32.3418 35.7264 32.3442 35.7247C33.4246 34.9899 34.4321 34.184 35.3778 33.3212C35.3819 33.3176 35.3859 33.314 35.3898 33.3103C35.3921 33.3082 35.3943 33.3062 35.3966 33.3042C35.4227 33.2801 35.4487 33.2558 35.4746 33.2318C35.5014 33.2067 35.5283 33.1816 35.555 33.1565C35.5713 33.1413 35.5874 33.126 35.6036 33.1107C35.6057 33.1086 35.608 33.1066 35.6102 33.1045C35.6223 33.0931 35.6343 33.0817 35.6464 33.0703C35.6505 33.0664 35.6546 33.0624 35.6588 33.0585C39.0269 29.8578 41.2524 26.0196 42.0724 22.5818C42.0743 22.5739 42.0762 22.5659 42.078 22.558C42.6201 20.2208 42.7118 18.4793 43.0158 16.3806C43.0169 16.3723 43.0181 16.3638 43.0194 16.3555C43.0195 16.3536 43.0199 16.3517 43.0201 16.35C43.0204 16.3488 43.0205 16.3476 43.0206 16.3465C43.0208 16.3446 43.0212 16.3426 43.0214 16.3408C43.0234 16.3263 43.0255 16.3118 43.0275 16.2974C43.0288 16.2883 43.0301 16.2793 43.0312 16.2702C43.0315 16.2694 43.0316 16.2685 43.0317 16.2676C43.0318 16.2663 43.0321 16.265 43.0322 16.2637C43.0349 16.2443 43.0376 16.2249 43.0405 16.2054C43.0472 16.1569 43.0543 16.1083 43.0614 16.0598C43.0705 15.9968 43.0799 15.9336 43.0895 15.8704C43.0944 15.8375 43.0995 15.8044 43.1046 15.7713C43.1052 15.7671 43.1059 15.7627 43.1075 15.7587C43.143 15.5313 43.1811 15.3027 43.2229 15.0725C43.3299 14.4825 43.4605 13.8815 43.6291 13.2585C43.6408 13.2152 43.6527 13.1717 43.6648 13.1281C43.6653 13.1268 43.6656 13.1254 43.666 13.1242C43.6674 13.119 43.6689 13.1139 43.6702 13.1087C43.6707 13.1074 43.6712 13.1059 43.6714 13.1045C43.8258 12.5494 44.01 11.9788 44.2336 11.3857C44.2408 11.3661 44.2481 11.3466 44.2556 11.3268C44.271 11.2857 44.2865 11.2446 44.3022 11.2035C44.3096 11.1843 44.3169 11.1653 44.3243 11.146C44.3266 11.1402 44.3288 11.1346 44.331 11.1289C44.7925 9.93573 45.3649 8.78344 46.0695 7.58757C46.3963 7.0295 46.7489 6.46919 47.1278 5.89942Z" fill="#8985F2" stroke="#716DF2" stroke-width="0.2" stroke-miterlimit="22.9256"/>
<path fill-rule="evenodd" clip-rule="evenodd" d="M36.705 5.51024C36.8754 5.59233 37.042 5.67005 37.2053 5.74316C37.221 5.75013 37.2368 5.75721 37.2525 5.76418C37.0745 5.68493 36.8923 5.60013 36.705 5.51024ZM40.1035 6.49788C39.0516 6.50733 37.9822 6.12773 36.705 5.51024C36.8754 5.59233 37.042 5.67005 37.2053 5.74316C37.221 5.75013 37.2368 5.75721 37.2525 5.76418C37.2754 5.77434 37.2983 5.78438 37.3211 5.79442C38.3487 6.24406 39.2387 6.50166 40.1035 6.49788ZM23.0748 4.01933C23.0569 4.02335 23.039 4.02748 23.0211 4.0315C22.9161 4.05536 22.812 4.08016 22.7087 4.10579C22.6615 4.11736 22.6146 4.12929 22.5678 4.14122C22.5244 4.15244 22.4811 4.16378 22.438 4.17512C22.6453 4.12008 22.8578 4.06811 23.0748 4.01933ZM14.3217 10.8559C16.8034 9.4673 19.3355 8.49372 21.8152 7.90494C21.8189 7.90411 21.8225 7.90328 21.8262 7.90234C21.9036 7.88379 21.9809 7.8656 22.0582 7.84789C23.8947 7.42517 25.6916 7.21399 27.3801 7.21375C27.4518 7.21375 27.5236 7.21411 27.5956 7.21493C27.5978 7.21493 27.5999 7.21493 27.6022 7.21505H27.6045H27.6089C29.1898 7.21954 30.9068 7.44289 32.4914 7.98608C32.5091 7.99222 32.5269 7.99836 32.5446 8.0045C32.5803 8.0169 32.6158 8.02954 32.6513 8.04218C32.7011 8.06013 32.7509 8.07832 32.8003 8.09687C34.2584 8.63781 35.5657 9.45656 36.5413 10.6312C36.5742 10.6709 36.6068 10.7109 36.6389 10.7513L43.6943 4.92004C43.6943 4.92004 43.692 4.9178 43.6918 4.91579L43.6887 4.91839L43.6797 4.92583C43.6755 4.92937 43.6714 4.93292 43.6671 4.93634C43.6509 4.94969 43.6349 4.96292 43.6187 4.97603C43.6158 4.97839 43.613 4.98063 43.6102 4.983C42.3985 5.97229 41.384 6.44462 40.2893 6.4921C40.2616 6.49351 40.234 6.49469 40.2063 6.49576H40.2047L40.2004 6.49588C40.1964 6.49599 40.1926 6.49611 40.1887 6.49623C40.1827 6.49647 40.1766 6.49658 40.1706 6.49682C40.1642 6.49682 40.1577 6.49706 40.1513 6.49718C40.1355 6.49753 40.1195 6.49777 40.1035 6.49611C39.1106 6.49611 38.0401 6.14733 36.705 5.51024C36.6719 5.4943 36.6386 5.47871 36.605 5.46312C36.4835 5.40383 36.3602 5.34253 36.2348 5.2791C36.1456 5.23422 36.0551 5.18827 35.9636 5.14103C35.9328 5.12508 35.9018 5.10902 35.8703 5.09355C35.3213 4.81859 34.7547 4.58626 34.1754 4.3915C34.0701 4.35618 33.9644 4.32217 33.8584 4.28922L33.8559 4.28851L33.8521 4.28733L33.8472 4.28579C33.8317 4.28118 33.8162 4.27646 33.8007 4.27185C33.8007 4.27185 33.7968 4.27067 33.7948 4.27008C33.7598 4.25957 33.7243 4.24906 33.6889 4.23878L33.6843 4.23748C32.3637 3.85386 30.9086 3.62827 29.4356 3.54134C29.4302 3.54098 29.4246 3.54075 29.4193 3.54039C29.2852 3.5326 29.1508 3.52587 29.0165 3.52031C29.0039 3.51984 28.991 3.51937 28.9784 3.51878C28.9316 3.51701 28.8849 3.51535 28.8381 3.5137C28.8338 3.51358 28.8298 3.51335 28.8257 3.51323L28.8237 3.51311C28.8017 3.5124 28.7797 3.51181 28.7578 3.51098C28.7377 3.51051 28.7176 3.5098 28.6975 3.50933C28.6823 3.50886 28.6669 3.5085 28.6517 3.50803C28.6423 3.5078 28.6329 3.50756 28.6235 3.50744C28.536 3.5052 28.4483 3.50343 28.3608 3.50224C28.3462 3.50201 28.3316 3.50189 28.3171 3.50165C28.3143 3.50165 28.3114 3.50165 28.3086 3.50154C28.2903 3.5013 28.2717 3.50106 28.2534 3.50095C28.1816 3.50035 28.1098 3.5 28.038 3.5C26.9674 3.5 25.9196 3.56968 24.9402 3.69535C24.8826 3.70291 24.8249 3.71059 24.7675 3.71862C24.2673 3.78795 23.7748 3.8724 23.3057 3.97055C23.2281 3.98673 23.1509 4.00244 23.0748 4.01933C23.0569 4.02335 23.039 4.02748 23.0211 4.0315C22.9161 4.05536 22.812 4.08016 22.7087 4.10579C22.6615 4.11736 22.6146 4.12929 22.5678 4.14122C22.5244 4.15244 22.4811 4.16378 22.438 4.17512C22.4179 4.18055 22.3977 4.18599 22.3777 4.19142C18.0149 5.3691 5.96679 9.97305 1 26.8231C2.44969 22.3822 4.85832 18.7044 7.79242 15.7742C9.60672 13.9607 11.6184 12.4367 13.7204 11.2009C13.7678 11.1731 13.8152 11.1453 13.8627 11.1178C13.8713 11.1128 13.88 11.1077 13.8886 11.1028C14.0009 11.0376 14.1133 10.9731 14.226 10.9096C14.2579 10.8917 14.2898 10.8738 14.3217 10.8559Z" fill="#8985F2"/>
<path d="M36.705 5.51024C36.8754 5.59233 37.042 5.67005 37.2053 5.74316C37.221 5.75013 37.2368 5.75721 37.2525 5.76418M36.705 5.51024C36.8923 5.60013 37.0745 5.68493 37.2525 5.76418M36.705 5.51024C37.9822 6.12773 39.0516 6.50733 40.1035 6.49788C39.2387 6.50166 38.3487 6.24406 37.3211 5.79442C37.2983 5.78438 37.2754 5.77434 37.2525 5.76418M36.705 5.51024C38.0401 6.14733 39.1106 6.49611 40.1035 6.49611C40.1195 6.49777 40.1355 6.49753 40.1513 6.49718C40.1577 6.49706 40.1642 6.49682 40.1706 6.49682C40.1766 6.49658 40.1827 6.49647 40.1887 6.49623C40.1926 6.49611 40.1964 6.49599 40.2004 6.49588L40.2047 6.49576H40.2063C40.234 6.4947 40.2616 6.49351 40.2893 6.4921C41.384 6.44462 42.3985 5.97229 43.6102 4.983C43.613 4.98063 43.6158 4.97839 43.6187 4.97603C43.6349 4.96292 43.6509 4.94969 43.6671 4.93634C43.6714 4.93292 43.6755 4.92937 43.6797 4.92583L43.6887 4.91839L43.6918 4.91579C43.692 4.9178 43.6943 4.92004 43.6943 4.92004L36.6389 10.7513C36.6068 10.7109 36.5742 10.6709 36.5413 10.6312C35.5657 9.45656 34.2584 8.63781 32.8003 8.09687C32.7509 8.07832 32.7011 8.06013 32.6513 8.04218C32.6158 8.02954 32.5803 8.0169 32.5446 8.0045C32.5269 7.99836 32.5091 7.99222 32.4914 7.98608C30.9068 7.44289 29.1898 7.21954 27.6089 7.21505H27.6045H27.6022C27.5999 7.21493 27.5978 7.21493 27.5956 7.21493C27.5236 7.21411 27.4518 7.21375 27.3801 7.21375C25.6916 7.21399 23.8947 7.42517 22.0582 7.84789C21.9809 7.86561 21.9036 7.88379 21.8262 7.90234C21.8225 7.90328 21.8189 7.90411 21.8152 7.90494C19.3355 8.49372 16.8034 9.4673 14.3217 10.8559C14.2898 10.8738 14.2579 10.8917 14.226 10.9096C14.1133 10.9731 14.0009 11.0376 13.8886 11.1028C13.88 11.1077 13.8713 11.1128 13.8627 11.1178C13.8152 11.1453 13.7678 11.1731 13.7204 11.2009C11.6184 12.4367 9.60672 13.9607 7.79242 15.7742C4.85832 18.7044 2.44969 22.3822 1 26.8231C5.96679 9.97305 18.0149 5.3691 22.3777 4.19142C22.3977 4.18599 22.4179 4.18055 22.438 4.17512M36.705 5.51024C36.6719 5.4943 36.6386 5.47871 36.605 5.46312C36.4835 5.40383 36.3602 5.34253 36.2348 5.2791C36.1456 5.23422 36.0551 5.18827 35.9636 5.14103C35.9328 5.12508 35.9018 5.10902 35.8703 5.09355C35.3213 4.81859 34.7547 4.58626 34.1754 4.3915C34.0701 4.35618 33.9644 4.32217 33.8584 4.28922L33.8559 4.28851L33.8521 4.28733L33.8472 4.28579C33.8317 4.28118 33.8162 4.27646 33.8007 4.27185C33.8007 4.27185 33.7968 4.27067 33.7948 4.27008C33.7598 4.25957 33.7243 4.24906 33.6889 4.23878L33.6843 4.23748C32.3637 3.85386 30.9086 3.62827 29.4356 3.54134C29.4302 3.54098 29.4246 3.54075 29.4193 3.54039C29.2852 3.5326 29.1508 3.52587 29.0165 3.52031C29.0039 3.51984 28.991 3.51937 28.9784 3.51878C28.9316 3.51701 28.8849 3.51535 28.8381 3.5137C28.8338 3.51358 28.8298 3.51335 28.8257 3.51323L28.8237 3.51311C28.8017 3.5124 28.7797 3.51181 28.7578 3.51098C28.7377 3.51051 28.7176 3.5098 28.6975 3.50933C28.6823 3.50886 28.6669 3.5085 28.6517 3.50803C28.6423 3.5078 28.6329 3.50756 28.6235 3.50744C28.536 3.5052 28.4483 3.50343 28.3608 3.50224C28.3462 3.50201 28.3316 3.50189 28.3171 3.50165C28.3143 3.50165 28.3114 3.50165 28.3086 3.50154C28.2903 3.5013 28.2717 3.50106 28.2534 3.50095C28.1816 3.50035 28.1098 3.5 28.038 3.5C26.9674 3.5 25.9196 3.56968 24.9402 3.69535C24.8826 3.70291 24.8249 3.71059 24.7675 3.71862C24.2673 3.78795 23.7748 3.8724 23.3057 3.97055C23.2281 3.98673 23.1509 4.00244 23.0748 4.01933M23.0748 4.01933C23.0569 4.02335 23.039 4.02748 23.0211 4.0315C22.9161 4.05536 22.812 4.08016 22.7087 4.10579C22.6615 4.11736 22.6146 4.12929 22.5678 4.14122C22.5244 4.15244 22.4811 4.16378 22.438 4.17512M23.0748 4.01933C22.8578 4.06811 22.6453 4.12008 22.438 4.17512" stroke="#716DF2" stroke-width="0.2" stroke-miterlimit="22.9256"/>
<path fill-rule="evenodd" clip-rule="evenodd" d="M19.5573 14.0847C19.4817 14.8638 20.0993 15.2782 20.9426 15.0003C21.7919 14.7211 22.5338 13.8522 22.5934 13.0686C22.6524 12.2938 22.0201 11.903 21.1866 12.1866C20.3588 12.4685 19.6317 13.3141 19.5573 14.0847Z" fill="#716DF2" stroke="#716DF2" stroke-width="0.2" stroke-miterlimit="22.9256"/>
<path fill-rule="evenodd" clip-rule="evenodd" d="M30.5601 10.8961C29.8798 11.1223 29.3165 11.7895 29.2988 12.3922C29.2806 12.9999 29.8232 13.3157 30.5138 13.0918C31.2085 12.8665 31.7805 12.1847 31.788 11.5745C31.7955 10.9694 31.2439 10.6682 30.5601 10.8961Z" fill="#716DF2" stroke="#716DF2" stroke-width="0.2" stroke-miterlimit="22.9256"/>
<path fill-rule="evenodd" clip-rule="evenodd" d="M34.6468 18.632C34.1464 18.7807 33.7428 19.2705 33.7432 19.7288C33.744 20.1899 34.1532 20.4471 34.6592 20.3002C35.1671 20.1523 35.5752 19.655 35.5692 19.1923C35.5624 18.7322 35.149 18.483 34.6468 18.632Z" fill="#716DF2" stroke="#716DF2" stroke-width="0.2" stroke-miterlimit="22.9256"/>
<path fill-rule="evenodd" clip-rule="evenodd" d="M33.4437 24.9247C33.4437 24.5561 33.1309 24.3453 32.7461 24.4518C32.3621 24.558 32.0485 24.9406 32.0452 25.308C32.0418 25.6773 32.3519 25.893 32.739 25.7875C33.1276 25.6822 33.4434 25.2951 33.4437 24.9247Z" fill="#716DF2" stroke="#716DF2" stroke-width="0.2" stroke-miterlimit="22.9256"/>
<path fill-rule="evenodd" clip-rule="evenodd" d="M28.8365 29.9866C28.844 29.7298 28.6423 29.5766 28.3866 29.6433C28.1312 29.7099 27.9175 29.9708 27.9085 30.2272C27.8995 30.4843 28.1001 30.6402 28.3566 30.574C28.6138 30.5076 28.829 30.2444 28.8365 29.9866Z" fill="#716DF2" stroke="#716DF2" stroke-width="0.2" stroke-miterlimit="22.9256"/>
<path fill-rule="evenodd" clip-rule="evenodd" d="M23.6127 32.59C23.6261 32.3798 23.4738 32.2511 23.2729 32.3024C23.0718 32.3532 22.8975 32.5645 22.8837 32.7748C22.8696 32.9855 23.0211 33.1147 23.2227 33.0633C23.4243 33.0126 23.599 32.8007 23.6127 32.59Z" fill="#716DF2" stroke="#716DF2" stroke-width="0.2" stroke-miterlimit="22.9256"/>
<path fill-rule="evenodd" clip-rule="evenodd" d="M17.5998 34.1638C17.6071 34.0486 17.5237 33.978 17.4136 34.0062C17.3035 34.034 17.208 34.1497 17.2005 34.265C17.1927 34.3804 17.2756 34.4513 17.3861 34.4231C17.4966 34.3953 17.5922 34.2792 17.5998 34.1638Z" fill="#716DF2" stroke="#716DF2" stroke-width="0.2" stroke-miterlimit="22.9256"/>
<defs>
<linearGradient id="paint0_linear_54_84" x1="36.5613" y1="4.81194" x2="19.9133" y2="25.5705" gradientUnits="userSpaceOnUse">
<stop stop-color="#3F5155"/>
<stop offset="1" stop-color="#2C3538"/>
</linearGradient>
</defs>
</svg>
