<svg width="149" height="44" viewBox="0 0 149 44" fill="none" xmlns="http://www.w3.org/2000/svg">
<path d="M133.016 34H127.828L120.766 17.4531H120.562C120.823 18.7135 120.953 20.0677 120.953 21.5156V34H117.016V11.1562H122.234L129.234 27.5312H129.406C129.208 26.4375 129.109 25.1354 129.109 23.625V11.1562H133.016V34ZM147.344 34H137.047V11.1562H147.344V14.8281H141.297V20.2656H146.906V23.9531H141.297V30.2812H147.344V34Z" fill="#6C63FF"/>
<path d="M6.23438 34H2.01562V11.1562H12.25V14.8281H6.23438V21.1719H11.8438V24.8438H6.23438V34ZM15.875 34V11.1562H19.875V34H15.875ZM28.9531 25.1094V34H24.7031V11.1562H30.2656C32.6198 11.1562 34.3542 11.7135 35.4688 12.8281C36.5938 13.9427 37.1562 15.6458 37.1562 17.9375C37.1562 20.8229 36.1823 22.8385 34.2344 23.9844L38.625 34H34.0781L30.4688 25.1094H28.9531ZM28.9531 21.4531H30.0469C31.0469 21.4531 31.7656 21.1719 32.2031 20.6094C32.6406 20.0365 32.8594 19.1875 32.8594 18.0625C32.8594 16.8958 32.625 16.0677 32.1562 15.5781C31.6979 15.0781 30.9844 14.8281 30.0156 14.8281H28.9531V21.4531ZM51.1094 27.7031C51.1094 29.8385 50.5677 31.474 49.4844 32.6094C48.4115 33.7448 46.8594 34.3125 44.8281 34.3125C42.8385 34.3125 41.1458 33.9219 39.75 33.1406V28.9375C41.4583 30.0521 43.026 30.6094 44.4531 30.6094C45.2656 30.6094 45.875 30.3854 46.2812 29.9375C46.6979 29.4896 46.9062 28.8802 46.9062 28.1094C46.9062 27.349 46.6615 26.6562 46.1719 26.0312C45.6823 25.3958 44.875 24.6927 43.75 23.9219C42.7708 23.2448 42.026 22.599 41.5156 21.9844C41.0156 21.3594 40.625 20.6615 40.3438 19.8906C40.0729 19.1198 39.9375 18.224 39.9375 17.2031C39.9375 15.2448 40.4792 13.6927 41.5625 12.5469C42.6562 11.401 44.1198 10.8281 45.9531 10.8281C47.7031 10.8281 49.3854 11.3177 51 12.2969L49.5938 15.7031C49.0938 15.4115 48.5677 15.151 48.0156 14.9219C47.474 14.6927 46.8906 14.5781 46.2656 14.5781C45.5781 14.5781 45.0469 14.8073 44.6719 15.2656C44.3073 15.7135 44.125 16.3281 44.125 17.1094C44.125 17.8802 44.3438 18.5521 44.7812 19.125C45.2292 19.6979 46.0052 20.349 47.1094 21.0781C48.599 22.0781 49.6354 23.099 50.2188 24.1406C50.8125 25.1823 51.1094 26.3698 51.1094 27.7031ZM60.9375 34H56.7031V14.8906H52.3281V11.1562H65.3125V14.8906H60.9375V34Z" fill="black"/>
<path fill-rule="evenodd" clip-rule="evenodd" d="M112.128 4L107.284 8.80391L100.603 15.4252L85.5363 30.3684L80 23.827L85.5168 26.0005L99.8121 14.1817L106.872 8.34694L112.128 4Z" fill="url(#paint0_linear_97_484)"/>
<path fill-rule="evenodd" clip-rule="evenodd" d="M94.333 4.44198C94.5093 4.44387 94.6857 4.44777 94.8625 4.45355C95.1832 4.46395 95.5045 4.48096 95.825 4.50458C97.1168 4.59765 98.3873 4.79572 99.6038 5.14639C99.9872 5.25505 100.361 5.37765 100.723 5.51442C101.047 5.63702 101.361 5.77084 101.661 5.91635C101.74 5.9545 101.818 5.9936 101.895 6.0334C101.926 6.04946 101.957 6.06553 101.988 6.08135C102.08 6.12824 102.17 6.17419 102.259 6.21907C102.385 6.28226 102.508 6.34356 102.63 6.4025C104.011 7.07077 105.11 7.43656 106.128 7.43656C106.16 7.43656 106.193 7.4362 106.225 7.43549L106.229 7.43537C106.257 7.43455 106.285 7.43325 106.314 7.43183C106.366 7.42912 106.419 7.42533 106.472 7.42061C106.476 7.42014 106.481 7.41967 106.485 7.41943C107.495 7.32447 108.503 6.85333 109.69 5.87797C109.695 5.87407 109.699 5.87017 109.704 5.86627C109.707 5.86379 109.71 5.86132 109.713 5.85883L109.716 5.85624C106.71 2.68414 102.315 1.16406 97.5618 1H95.7965C92.2876 1.11988 88.6565 1.93768 85.2992 3.34107C78.628 6.12553 68.9501 14.2241 67 27.8387C67.0081 27.8137 67.0163 27.7885 67.0244 27.7635C71.9912 10.9135 84.0393 6.30954 88.4021 5.13186C88.4648 5.11486 88.5283 5.09808 88.5923 5.08167C88.6389 5.06962 88.6858 5.05781 88.7331 5.046C89.4352 4.8719 90.1926 4.73241 90.9833 4.63155C91.2567 4.59659 91.5341 4.56623 91.8146 4.5406C92.5698 4.47115 93.328 4.43749 94.0624 4.43867C94.1532 4.43891 94.2433 4.4395 94.333 4.44198ZM94.333 4.44198C94.4473 4.44328 94.5616 4.44529 94.6761 4.448C94.5625 4.4447 94.4481 4.44233 94.333 4.44198Z" fill="#716DF2"/>
<path fill-rule="evenodd" clip-rule="evenodd" d="M101.604 34.1107C101.587 34.126 101.571 34.1413 101.555 34.1565C101.571 34.1413 101.587 34.126 101.604 34.1107ZM73.149 26.4229C73.1493 26.4217 73.1498 26.4205 73.1503 26.4192C73.1498 26.4204 73.1493 26.4217 73.149 26.4229ZM113.714 6.04028C113.695 6.06639 113.677 6.09261 113.659 6.11871C113.677 6.09261 113.695 6.06639 113.714 6.04028ZM113.428 6.45568C113.424 6.46241 113.419 6.46926 113.414 6.47599C113.391 6.51095 113.367 6.54591 113.344 6.58076C113.323 6.61217 113.301 6.64371 113.28 6.67501C113.329 6.60225 113.378 6.52914 113.428 6.45568ZM101.659 34.0585C101.643 34.0738 101.627 34.0892 101.61 34.1045C101.608 34.1066 101.606 34.1087 101.604 34.1107C101.587 34.126 101.571 34.1413 101.555 34.1565C101.528 34.1817 101.501 34.2067 101.475 34.2317C101.449 34.2558 101.423 34.2801 101.397 34.3041C101.394 34.3062 101.392 34.3083 101.39 34.3103C101.386 34.314 101.382 34.3176 101.378 34.3213C100.446 35.1802 99.4307 35.9899 98.3371 36.7297C98.3358 36.7304 98.3346 36.7313 98.3335 36.732C98.1437 36.8611 97.9514 36.988 97.757 37.1125C97.7547 37.114 97.7525 37.1154 97.7504 37.1167C96.1494 38.1413 94.3922 39.0116 92.4457 39.6835C89.6728 40.6405 86.9044 41.113 84.3529 41.113C79.4309 41.1135 75.3147 39.356 73.5157 35.9296C72.1485 33.325 71.9276 29.7957 73.149 26.4229C73.1493 26.4217 73.1498 26.4204 73.1503 26.4192C73.1506 26.418 73.1511 26.4167 73.1515 26.4155C73.1563 26.4026 73.161 26.3896 73.1657 26.3767C73.1689 26.3678 73.1722 26.3589 73.1755 26.35C73.1851 26.3237 73.1948 26.2974 73.2046 26.2713C73.3093 25.9922 73.4238 25.7144 73.549 25.4388C73.5562 25.4231 73.5633 25.4074 73.5705 25.3918C73.6448 25.229 73.7219 25.0679 73.8011 24.9082C73.8034 24.9035 73.8058 24.8988 73.8083 24.894C73.8122 24.8861 73.8163 24.8782 73.8202 24.8703C75.2276 22.0947 77.6882 19.5481 81.3799 17.8738C75.4846 19.0353 70.4036 26.2209 70.9826 33.0412C71.5003 39.1297 76.8516 43.7492 85.4516 43.7492C88.4408 43.7492 91.823 43.1909 95.5306 41.942C110.529 36.8937 115.5 22.7001 113.55 13.1136V13.0921C113.152 9.72155 112.912 7.59722 113.714 6.04028C113.695 6.06639 113.677 6.09261 113.659 6.11871C113.621 6.17398 113.583 6.22914 113.545 6.28406C113.544 6.28631 113.542 6.28867 113.54 6.29091C113.539 6.29387 113.537 6.29682 113.535 6.29965C113.533 6.30202 113.531 6.30438 113.53 6.30674C113.497 6.35458 113.465 6.40229 113.432 6.44965C113.431 6.45166 113.43 6.45367 113.428 6.45568C113.424 6.46241 113.419 6.46926 113.414 6.47599C113.391 6.51095 113.367 6.54591 113.344 6.58076C113.323 6.61217 113.301 6.64371 113.28 6.67442C113.229 6.75001 113.179 6.82536 113.13 6.90072C113.071 6.98954 113.013 7.07777 112.957 7.16611C111.713 9.08293 110.878 10.731 110.299 12.2216C110.299 12.2221 110.299 12.2228 110.299 12.2233C109.748 13.6676 109.365 15.1576 109.096 16.8506C109.074 16.9891 109.053 17.129 109.032 17.2704C109.031 17.2795 109.03 17.2884 109.028 17.2975C109.028 17.2983 109.028 17.2994 109.028 17.3002C109.027 17.3063 109.026 17.3124 109.025 17.3184C109.022 17.3392 109.02 17.36 109.016 17.3808C109.016 17.3832 109.016 17.3856 109.015 17.388C109.015 17.3886 109.015 17.3891 109.015 17.3895C109.01 17.4254 109.005 17.4613 109 17.4975C109 17.5008 108.999 17.504 108.999 17.5073C108.996 17.5264 108.994 17.5457 108.991 17.5649C108.991 17.5679 108.99 17.5707 108.99 17.5739C108.987 17.6012 108.983 17.6285 108.98 17.6558C108.979 17.663 108.978 17.67 108.977 17.6771C108.976 17.6797 108.976 17.6823 108.976 17.6849C108.971 17.7233 108.966 17.7618 108.961 17.8002C108.959 17.8118 108.958 17.8233 108.956 17.835C108.953 17.8561 108.951 17.8773 108.948 17.8985C108.948 17.8994 108.948 17.9004 108.948 17.9014C108.947 17.9032 108.947 17.9051 108.947 17.907C108.946 17.9109 108.946 17.9149 108.945 17.9189C108.944 17.9322 108.942 17.9457 108.94 17.9591C108.938 17.9763 108.936 17.9935 108.934 18.0109C108.933 18.0184 108.932 18.0259 108.931 18.0334C108.93 18.0426 108.929 18.0518 108.928 18.0609C108.925 18.0789 108.923 18.097 108.921 18.1151C108.921 18.1164 108.921 18.1179 108.92 18.1193C108.919 18.1289 108.918 18.1385 108.917 18.148C108.823 18.9102 108.739 19.6745 108.634 20.4654C108.598 20.7304 108.56 20.9983 108.519 21.2702C108.517 21.2816 108.515 21.2932 108.514 21.3047C108.511 21.3211 108.508 21.3374 108.506 21.3537C108.504 21.3653 108.502 21.3768 108.5 21.3884C108.489 21.4606 108.478 21.533 108.466 21.6057C108.367 22.2185 108.246 22.8523 108.078 23.558C108.077 23.5636 108.075 23.5692 108.074 23.5749C108.073 23.5771 108.073 23.5795 108.072 23.5818C107.252 27.0196 105.027 30.8578 101.659 34.0585ZM73.149 26.4229C73.144 26.4364 73.1393 26.4499 73.1343 26.4634C73.1392 26.4499 73.144 26.4364 73.149 26.4229ZM108.904 18.256C108.701 19.929 108.542 21.619 108.077 23.5808C108.542 21.619 108.701 19.9291 108.904 18.256ZM113.13 6.90107C113.072 6.99001 113.014 7.07824 112.957 7.16611C113.014 7.07824 113.072 6.99001 113.13 6.90107ZM113.432 6.44977C113.431 6.45178 113.43 6.45367 113.428 6.45568C113.43 6.45367 113.431 6.45178 113.432 6.44977ZM108.914 18.1737C108.91 18.2011 108.907 18.2286 108.904 18.256C108.907 18.2286 108.91 18.2011 108.914 18.1737Z" fill="#716DF2"/>
<path fill-rule="evenodd" clip-rule="evenodd" d="M101.555 34.1567C101.571 34.1415 101.588 34.1262 101.604 34.1107C101.587 34.126 101.571 34.1413 101.555 34.1567ZM75.6695 22.0994C75.5931 22.1893 75.5182 22.2797 75.4446 22.3706C74.8672 23.0844 74.3751 23.831 73.9642 24.5972C73.9154 24.6881 73.8677 24.7794 73.8213 24.8708C73.8173 24.8787 73.8133 24.8866 73.8092 24.8946C73.8069 24.8994 73.8044 24.904 73.8023 24.9087C74.2928 23.9352 74.9127 22.9895 75.6695 22.0994ZM73.1795 26.3395C73.188 26.3168 73.1964 26.294 73.2049 26.2713C73.1964 26.294 73.188 26.3168 73.1795 26.3395ZM73.149 26.4229C73.144 26.4364 73.1393 26.4499 73.1344 26.4634C73.1392 26.4499 73.144 26.4364 73.149 26.4229ZM109.666 14.1242C109.667 14.119 109.669 14.1139 109.67 14.1087C109.669 14.1139 109.667 14.119 109.666 14.1242ZM113.128 6.89942C113.226 6.75202 113.326 6.60391 113.427 6.45509C113.429 6.45308 113.43 6.45107 113.431 6.44906C113.465 6.39922 113.5 6.34938 113.534 6.29942C113.536 6.29635 113.538 6.29351 113.54 6.29068C113.542 6.28832 113.543 6.28607 113.545 6.28383C113.583 6.22879 113.621 6.17375 113.659 6.11859C113.659 6.11812 113.66 6.11741 113.66 6.11694C113.669 6.10394 113.678 6.09095 113.687 6.07796C113.696 6.06532 113.705 6.0528 113.714 6.04028C112.951 6.74068 105.062 13.3184 104.878 18.6474C104.878 18.9114 104.865 19.1854 104.841 19.4595C104.523 23.7305 102.193 27.8228 98.902 31.0757C98.8989 31.0788 98.8957 31.0819 98.8926 31.0849C94.6751 35.2649 88.8754 38.0628 83.674 38.0579C82.8782 38.0572 82.0965 37.9909 81.3365 37.8538C81.3158 37.8502 81.2949 37.8463 81.2742 37.8425C77.1147 37.0768 74.8712 34.911 74.0843 32.2302C74.0329 32.0558 73.9878 31.8795 73.9487 31.701C73.818 31.1041 73.755 30.4854 73.755 29.8539C73.755 29.2612 73.8107 28.6574 73.9179 28.0498C73.9444 27.8993 73.9741 27.7483 74.007 27.5974C74.0572 27.3661 74.1148 27.1345 74.1795 26.9031C74.8708 24.4272 76.3732 21.9716 78.4228 20.0447C78.5222 19.9511 78.623 19.8589 78.725 19.7678C79.0525 19.4757 79.3929 19.197 79.7454 18.9338C80.1776 18.6108 80.6279 18.311 81.0943 18.0381C81.1643 17.997 81.235 17.9566 81.3058 17.9168C81.3175 17.9103 81.3291 17.9037 81.3409 17.8971C81.278 17.9259 81.2152 17.9548 81.153 17.9841C81.0648 18.0254 80.9771 18.0675 80.89 18.1101C80.4071 18.3463 79.9407 18.601 79.4915 18.8732C78.324 19.5813 77.2564 20.4194 76.3199 21.3837C76.2961 21.4082 76.2724 21.4328 76.2487 21.4574C76.2426 21.4639 76.2365 21.4703 76.2304 21.4765C76.2109 21.4971 76.1915 21.5175 76.172 21.5382C75.9997 21.7208 75.832 21.9077 75.6691 22.0992C75.5929 22.1886 75.5179 22.2788 75.4446 22.3706C74.8672 23.0844 74.375 23.831 73.9633 24.5966C73.9147 24.6875 73.8672 24.7788 73.8207 24.8705C73.8167 24.8783 73.8127 24.8864 73.8088 24.8943C73.8063 24.899 73.8039 24.9037 73.8024 24.9088C73.7216 25.0691 73.6444 25.2301 73.5705 25.3918C73.5633 25.4074 73.5562 25.4231 73.5492 25.4388C73.5273 25.4872 73.5056 25.5357 73.4844 25.5844C73.3759 25.8322 73.2742 26.0839 73.1795 26.3395C73.1782 26.343 73.1769 26.3465 73.1757 26.35C73.1724 26.359 73.1691 26.3678 73.1659 26.3767C73.161 26.3897 73.1563 26.4027 73.1516 26.4155C73.1512 26.4167 73.1507 26.418 73.1503 26.4192C73.1498 26.4204 73.1494 26.4217 73.149 26.4229C73.144 26.4364 73.1393 26.4499 73.1344 26.4634C73.1338 26.4653 73.1331 26.4669 73.1326 26.4687C73.132 26.47 73.1315 26.4713 73.1312 26.4726C73.1264 26.4857 73.1217 26.4989 73.1171 26.5122C71.9341 29.8589 72.1655 33.3502 73.5212 35.9341C75.318 39.3549 79.4282 41.111 84.3507 41.111C86.9104 41.111 89.6671 40.644 92.4484 39.6797C94.6005 38.9368 96.5709 37.9244 98.337 36.7297C98.3395 36.7281 98.3418 36.7264 98.3442 36.7247C99.4246 35.9899 100.432 35.184 101.378 34.3212C101.382 34.3176 101.386 34.314 101.39 34.3103C101.392 34.3082 101.394 34.3062 101.397 34.3042C101.423 34.2801 101.449 34.2558 101.475 34.2318C101.501 34.2067 101.528 34.1816 101.555 34.1565C101.571 34.1413 101.587 34.126 101.604 34.1107C101.606 34.1086 101.608 34.1066 101.61 34.1045C101.622 34.0931 101.634 34.0817 101.646 34.0703C101.651 34.0664 101.655 34.0624 101.659 34.0585C105.027 30.8578 107.252 27.0196 108.072 23.5818C108.074 23.5739 108.076 23.5659 108.078 23.558C108.62 21.2208 108.712 19.4793 109.016 17.3806C109.017 17.3723 109.018 17.3638 109.019 17.3555C109.02 17.3536 109.02 17.3517 109.02 17.35C109.02 17.3488 109.02 17.3476 109.021 17.3465C109.021 17.3446 109.021 17.3426 109.021 17.3408C109.023 17.3263 109.025 17.3118 109.027 17.2974C109.029 17.2883 109.03 17.2793 109.031 17.2702C109.031 17.2694 109.032 17.2685 109.032 17.2676C109.032 17.2663 109.032 17.265 109.032 17.2637C109.035 17.2443 109.038 17.2249 109.04 17.2054C109.047 17.1569 109.054 17.1083 109.061 17.0598C109.07 16.9968 109.08 16.9336 109.089 16.8704C109.094 16.8375 109.1 16.8044 109.105 16.7713C109.105 16.7671 109.106 16.7627 109.108 16.7587C109.143 16.5313 109.181 16.3027 109.223 16.0725C109.33 15.4825 109.46 14.8815 109.629 14.2585C109.641 14.2152 109.653 14.1717 109.665 14.1281C109.665 14.1268 109.666 14.1254 109.666 14.1242C109.667 14.119 109.669 14.1139 109.67 14.1087C109.671 14.1074 109.671 14.1059 109.671 14.1045C109.826 13.5494 110.01 12.9788 110.234 12.3857C110.241 12.3661 110.248 12.3466 110.256 12.3268C110.271 12.2857 110.287 12.2446 110.302 12.2035C110.31 12.1843 110.317 12.1653 110.324 12.146C110.327 12.1402 110.329 12.1346 110.331 12.1289C110.793 10.9357 111.365 9.78344 112.07 8.58757C112.396 8.0295 112.749 7.46919 113.128 6.89942Z" fill="#8985F2" stroke="#716DF2" stroke-width="0.2" stroke-miterlimit="22.9256"/>
<path fill-rule="evenodd" clip-rule="evenodd" d="M102.705 6.51024C102.875 6.59233 103.042 6.67005 103.205 6.74316C103.221 6.75013 103.237 6.75721 103.253 6.76418C103.075 6.68493 102.892 6.60013 102.705 6.51024ZM106.103 7.49788C105.052 7.50733 103.982 7.12773 102.705 6.51024C102.875 6.59233 103.042 6.67005 103.205 6.74316C103.221 6.75013 103.237 6.75721 103.253 6.76418C103.275 6.77434 103.298 6.78438 103.321 6.79442C104.349 7.24406 105.239 7.50166 106.103 7.49788ZM89.0748 5.01933C89.0569 5.02335 89.039 5.02748 89.0211 5.0315C88.9161 5.05536 88.812 5.08016 88.7087 5.10579C88.6615 5.11736 88.6146 5.12929 88.5678 5.14122C88.5244 5.15244 88.4811 5.16378 88.438 5.17512C88.6453 5.12008 88.8578 5.06811 89.0748 5.01933ZM80.3217 11.8559C82.8034 10.4673 85.3355 9.49372 87.8152 8.90494C87.8189 8.90411 87.8225 8.90328 87.8262 8.90234C87.9036 8.88379 87.9809 8.8656 88.0582 8.84789C89.8947 8.42517 91.6916 8.21399 93.3801 8.21375C93.4518 8.21375 93.5236 8.21411 93.5956 8.21493C93.5978 8.21493 93.5999 8.21493 93.6022 8.21505H93.6045H93.6089C95.1898 8.21954 96.9068 8.44289 98.4914 8.98608C98.5091 8.99222 98.5269 8.99836 98.5446 9.0045C98.5803 9.0169 98.6158 9.02954 98.6513 9.04218C98.7011 9.06013 98.7509 9.07832 98.8003 9.09687C100.258 9.63781 101.566 10.4566 102.541 11.6312C102.574 11.6709 102.607 11.7109 102.639 11.7513L109.694 5.92004C109.694 5.92004 109.692 5.9178 109.692 5.91579L109.689 5.91839L109.68 5.92583C109.675 5.92937 109.671 5.93292 109.667 5.93634C109.651 5.94969 109.635 5.96292 109.619 5.97603C109.616 5.97839 109.613 5.98063 109.61 5.983C108.398 6.97229 107.384 7.44462 106.289 7.4921C106.262 7.49351 106.234 7.49469 106.206 7.49576H106.205L106.2 7.49588C106.196 7.49599 106.193 7.49611 106.189 7.49623C106.183 7.49647 106.177 7.49658 106.171 7.49682C106.164 7.49682 106.158 7.49706 106.151 7.49718C106.135 7.49753 106.12 7.49777 106.103 7.49611C105.111 7.49611 104.04 7.14733 102.705 6.51024C102.672 6.4943 102.639 6.47871 102.605 6.46312C102.483 6.40383 102.36 6.34253 102.235 6.2791C102.146 6.23422 102.055 6.18827 101.964 6.14103C101.933 6.12508 101.902 6.10902 101.87 6.09355C101.321 5.81859 100.755 5.58626 100.175 5.3915C100.07 5.35618 99.9644 5.32217 99.8584 5.28922L99.8559 5.28851L99.8521 5.28733L99.8472 5.28579C99.8317 5.28118 99.8162 5.27646 99.8007 5.27185C99.8007 5.27185 99.7968 5.27067 99.7948 5.27008C99.7598 5.25957 99.7243 5.24906 99.6889 5.23878L99.6843 5.23748C98.3637 4.85386 96.9086 4.62827 95.4356 4.54134C95.4302 4.54098 95.4246 4.54075 95.4193 4.54039C95.2852 4.5326 95.1508 4.52587 95.0165 4.52031C95.0039 4.51984 94.991 4.51937 94.9784 4.51878C94.9316 4.51701 94.8849 4.51535 94.8381 4.5137C94.8338 4.51358 94.8298 4.51335 94.8257 4.51323L94.8237 4.51311C94.8017 4.5124 94.7797 4.51181 94.7578 4.51098C94.7377 4.51051 94.7176 4.5098 94.6975 4.50933C94.6823 4.50886 94.6669 4.5085 94.6517 4.50803C94.6423 4.5078 94.6329 4.50756 94.6235 4.50744C94.536 4.5052 94.4483 4.50343 94.3608 4.50224C94.3462 4.50201 94.3316 4.50189 94.3171 4.50165C94.3143 4.50165 94.3114 4.50165 94.3086 4.50154C94.2903 4.5013 94.2717 4.50106 94.2534 4.50095C94.1816 4.50035 94.1098 4.5 94.038 4.5C92.9674 4.5 91.9196 4.56968 90.9402 4.69535C90.8826 4.70291 90.8249 4.71059 90.7675 4.71862C90.2673 4.78795 89.7748 4.8724 89.3057 4.97055C89.2281 4.98673 89.1509 5.00244 89.0748 5.01933C89.0569 5.02335 89.039 5.02748 89.0211 5.0315C88.9161 5.05536 88.812 5.08016 88.7087 5.10579C88.6615 5.11736 88.6146 5.12929 88.5678 5.14122C88.5244 5.15244 88.4811 5.16378 88.438 5.17512C88.4179 5.18055 88.3977 5.18599 88.3777 5.19142C84.0149 6.3691 71.9668 10.9731 67 27.8231C68.4497 23.3822 70.8583 19.7044 73.7924 16.7742C75.6067 14.9607 77.6184 13.4367 79.7204 12.2009C79.7678 12.1731 79.8152 12.1453 79.8627 12.1178C79.8713 12.1128 79.88 12.1077 79.8886 12.1028C80.0009 12.0376 80.1133 11.9731 80.226 11.9096C80.2579 11.8917 80.2898 11.8738 80.3217 11.8559Z" fill="#8985F2"/>
<path d="M102.705 6.51024C102.875 6.59233 103.042 6.67005 103.205 6.74316C103.221 6.75013 103.237 6.75721 103.253 6.76418M102.705 6.51024C102.892 6.60013 103.075 6.68493 103.253 6.76418M102.705 6.51024C103.982 7.12773 105.052 7.50733 106.103 7.49788C105.239 7.50166 104.349 7.24406 103.321 6.79442C103.298 6.78438 103.275 6.77434 103.253 6.76418M102.705 6.51024C104.04 7.14733 105.111 7.49611 106.103 7.49611C106.12 7.49777 106.135 7.49753 106.151 7.49718C106.158 7.49706 106.164 7.49682 106.171 7.49682C106.177 7.49658 106.183 7.49647 106.189 7.49623C106.193 7.49611 106.196 7.49599 106.2 7.49588L106.205 7.49576H106.206C106.234 7.4947 106.262 7.49351 106.289 7.4921C107.384 7.44462 108.398 6.97229 109.61 5.983C109.613 5.98063 109.616 5.97839 109.619 5.97603C109.635 5.96292 109.651 5.94969 109.667 5.93634C109.671 5.93292 109.675 5.92937 109.68 5.92583L109.689 5.91839L109.692 5.91579C109.692 5.9178 109.694 5.92004 109.694 5.92004L102.639 11.7513C102.607 11.7109 102.574 11.6709 102.541 11.6312C101.566 10.4566 100.258 9.63781 98.8003 9.09687C98.7509 9.07832 98.7011 9.06013 98.6513 9.04218C98.6158 9.02954 98.5803 9.0169 98.5446 9.0045C98.5269 8.99836 98.5091 8.99222 98.4914 8.98608C96.9068 8.44289 95.1898 8.21954 93.6089 8.21505H93.6045H93.6022C93.5999 8.21493 93.5978 8.21493 93.5956 8.21493C93.5236 8.21411 93.4518 8.21375 93.3801 8.21375C91.6916 8.21399 89.8947 8.42517 88.0582 8.84789C87.9809 8.86561 87.9036 8.88379 87.8262 8.90234C87.8225 8.90328 87.8189 8.90411 87.8152 8.90494C85.3355 9.49372 82.8034 10.4673 80.3217 11.8559C80.2898 11.8738 80.2579 11.8917 80.226 11.9096C80.1133 11.9731 80.0009 12.0376 79.8886 12.1028C79.88 12.1077 79.8713 12.1128 79.8627 12.1178C79.8152 12.1453 79.7678 12.1731 79.7204 12.2009C77.6184 13.4367 75.6067 14.9607 73.7924 16.7742C70.8583 19.7044 68.4497 23.3822 67 27.8231C71.9668 10.9731 84.0149 6.3691 88.3777 5.19142C88.3977 5.18599 88.4179 5.18055 88.438 5.17512M102.705 6.51024C102.672 6.4943 102.639 6.47871 102.605 6.46312C102.483 6.40383 102.36 6.34253 102.235 6.2791C102.146 6.23422 102.055 6.18827 101.964 6.14103C101.933 6.12508 101.902 6.10902 101.87 6.09355C101.321 5.81859 100.755 5.58626 100.175 5.3915C100.07 5.35618 99.9644 5.32217 99.8584 5.28922L99.8559 5.28851L99.8521 5.28733L99.8472 5.28579C99.8317 5.28118 99.8162 5.27646 99.8007 5.27185C99.8007 5.27185 99.7968 5.27067 99.7948 5.27008C99.7598 5.25957 99.7243 5.24906 99.6889 5.23878L99.6843 5.23748C98.3637 4.85386 96.9086 4.62827 95.4356 4.54134C95.4302 4.54098 95.4246 4.54075 95.4193 4.54039C95.2852 4.5326 95.1508 4.52587 95.0165 4.52031C95.0039 4.51984 94.991 4.51937 94.9784 4.51878C94.9316 4.51701 94.8849 4.51535 94.8381 4.5137C94.8338 4.51358 94.8298 4.51335 94.8257 4.51323L94.8237 4.51311C94.8017 4.5124 94.7797 4.51181 94.7578 4.51098C94.7377 4.51051 94.7176 4.5098 94.6975 4.50933C94.6823 4.50886 94.6669 4.5085 94.6517 4.50803C94.6423 4.5078 94.6329 4.50756 94.6235 4.50744C94.536 4.5052 94.4483 4.50343 94.3608 4.50224C94.3462 4.50201 94.3316 4.50189 94.3171 4.50165C94.3143 4.50165 94.3114 4.50165 94.3086 4.50154C94.2903 4.5013 94.2717 4.50106 94.2534 4.50095C94.1816 4.50035 94.1098 4.5 94.038 4.5C92.9674 4.5 91.9196 4.56968 90.9402 4.69535C90.8826 4.70291 90.8249 4.71059 90.7675 4.71862C90.2673 4.78795 89.7748 4.8724 89.3057 4.97055C89.2281 4.98673 89.1509 5.00244 89.0748 5.01933M89.0748 5.01933C89.0569 5.02335 89.039 5.02748 89.0211 5.0315C88.9161 5.05536 88.812 5.08016 88.7087 5.10579C88.6615 5.11736 88.6146 5.12929 88.5678 5.14122C88.5244 5.15244 88.4811 5.16378 88.438 5.17512M89.0748 5.01933C88.8578 5.06811 88.6453 5.12008 88.438 5.17512" stroke="#716DF2" stroke-width="0.2" stroke-miterlimit="22.9256"/>
<path fill-rule="evenodd" clip-rule="evenodd" d="M85.5573 15.0847C85.4817 15.8638 86.0993 16.2782 86.9426 16.0003C87.7919 15.7211 88.5338 14.8522 88.5934 14.0686C88.6524 13.2938 88.0201 12.903 87.1866 13.1866C86.3588 13.4685 85.6317 14.3141 85.5573 15.0847Z" fill="#716DF2" stroke="#716DF2" stroke-width="0.2" stroke-miterlimit="22.9256"/>
<path fill-rule="evenodd" clip-rule="evenodd" d="M96.5601 11.8961C95.8798 12.1223 95.3165 12.7895 95.2988 13.3922C95.2806 13.9999 95.8232 14.3157 96.5138 14.0918C97.2085 13.8665 97.7805 13.1847 97.788 12.5745C97.7955 11.9694 97.2439 11.6682 96.5601 11.8961Z" fill="#716DF2" stroke="#716DF2" stroke-width="0.2" stroke-miterlimit="22.9256"/>
<path fill-rule="evenodd" clip-rule="evenodd" d="M100.647 19.632C100.146 19.7807 99.7427 20.2705 99.743 20.7288C99.7439 21.1899 100.153 21.4471 100.659 21.3002C101.167 21.1523 101.575 20.655 101.569 20.1923C101.562 19.7322 101.149 19.483 100.647 19.632Z" fill="#716DF2" stroke="#716DF2" stroke-width="0.2" stroke-miterlimit="22.9256"/>
<path fill-rule="evenodd" clip-rule="evenodd" d="M99.4437 25.9247C99.4437 25.5561 99.1309 25.3453 98.7461 25.4518C98.3621 25.558 98.0485 25.9406 98.0452 26.308C98.0418 26.6773 98.3519 26.893 98.739 26.7875C99.1276 26.6822 99.4434 26.2951 99.4437 25.9247Z" fill="#716DF2" stroke="#716DF2" stroke-width="0.2" stroke-miterlimit="22.9256"/>
<path fill-rule="evenodd" clip-rule="evenodd" d="M94.8364 30.9866C94.8439 30.7298 94.6422 30.5766 94.3865 30.6433C94.1311 30.7099 93.9173 30.9708 93.9084 31.2272C93.8994 31.4843 94.0999 31.6402 94.3565 31.574C94.6137 31.5076 94.8289 31.2444 94.8364 30.9866Z" fill="#716DF2" stroke="#716DF2" stroke-width="0.2" stroke-miterlimit="22.9256"/>
<path fill-rule="evenodd" clip-rule="evenodd" d="M89.6127 33.59C89.6261 33.3798 89.4738 33.2511 89.2729 33.3024C89.0718 33.3532 88.8975 33.5645 88.8837 33.7748C88.8696 33.9855 89.0211 34.1147 89.2227 34.0633C89.4243 34.0126 89.599 33.8007 89.6127 33.59Z" fill="#716DF2" stroke="#716DF2" stroke-width="0.2" stroke-miterlimit="22.9256"/>
<path fill-rule="evenodd" clip-rule="evenodd" d="M83.5998 35.1638C83.6071 35.0486 83.5237 34.978 83.4136 35.0062C83.3035 35.034 83.208 35.1497 83.2005 35.265C83.1927 35.3804 83.2756 35.4513 83.3861 35.4231C83.4966 35.3953 83.5922 35.2792 83.5998 35.1638Z" fill="#716DF2" stroke="#716DF2" stroke-width="0.2" stroke-miterlimit="22.9256"/>
<defs>
<linearGradient id="paint0_linear_97_484" x1="102.561" y1="5.81194" x2="85.9133" y2="26.5705" gradientUnits="userSpaceOnUse">
<stop stop-color="#3F5155"/>
<stop offset="1" stop-color="#2C3538"/>
</linearGradient>
</defs>
</svg>
