<svg width="365" height="278" viewBox="0 0 365 278" fill="none" xmlns="http://www.w3.org/2000/svg">
<g clip-path="url(#clip0_53_1351)">
<path d="M146.055 57.6508H144.723V21.1346C144.723 18.3592 144.177 15.6109 143.116 13.0468C142.055 10.4826 140.5 8.15272 138.54 6.19019C136.579 4.22766 134.252 2.6709 131.69 1.60878C129.129 0.546668 126.384 2.35157e-06 123.611 0H46.3295C40.7302 -1.06855e-05 35.3603 2.22665 31.401 6.19014C27.4418 10.1536 25.2175 15.5293 25.2175 21.1345V221.465C25.2175 224.241 25.7635 226.989 26.8245 229.553C27.8855 232.117 29.4406 234.447 31.401 236.41C33.3614 238.372 35.6888 239.929 38.2502 240.991C40.8116 242.053 43.5569 242.6 46.3294 242.6H123.611C129.21 242.6 134.58 240.373 138.54 236.41C142.499 232.446 144.723 227.071 144.723 221.465V83.6437H146.055V57.6508Z" fill="#3F3D56"/>
<path d="M124.463 5.49849H114.375C114.839 6.63707 115.016 7.8724 114.891 9.09563C114.766 10.3189 114.342 11.4925 113.656 12.5131C112.971 13.5337 112.046 14.3699 110.962 14.9482C109.878 15.5264 108.668 15.8289 107.44 15.829H63.1664C61.938 15.8289 60.7286 15.5264 59.6445 14.9482C58.5605 14.3699 57.6351 13.5337 56.95 12.5131C56.2648 11.4925 55.8409 10.3189 55.7155 9.09564C55.5902 7.8724 55.7673 6.63707 56.2312 5.49849H46.8092C44.7387 5.49849 42.6885 5.90673 40.7757 6.6999C38.8629 7.49307 37.1248 8.65564 35.6608 10.1212C34.1968 11.5868 33.0354 13.3267 32.2431 15.2416C31.4508 17.1565 31.043 19.2089 31.043 21.2815V221.318C31.043 223.391 31.4508 225.443 32.2431 227.358C33.0354 229.273 34.1967 231.013 35.6608 232.479C37.1248 233.944 38.8628 235.107 40.7757 235.9C42.6885 236.693 44.7387 237.101 46.8091 237.101H124.463C126.533 237.101 128.584 236.693 130.496 235.9C132.409 235.107 134.147 233.944 135.611 232.479C137.075 231.013 138.237 229.273 139.029 227.358C139.821 225.443 140.229 223.391 140.229 221.318V21.2815C140.229 19.2089 139.821 17.1565 139.029 15.2416C138.237 13.3267 137.075 11.5868 135.611 10.1212C134.147 8.65564 132.409 7.49307 130.496 6.6999C128.584 5.90673 126.533 5.49849 124.463 5.49849Z" fill="white"/>
<path d="M170.825 242.634H0.447186C0.328585 242.634 0.214841 242.587 0.130977 242.503C0.0471138 242.419 0 242.306 0 242.187C0 242.068 0.0471138 241.954 0.130977 241.87C0.214841 241.786 0.328585 241.739 0.447186 241.739H170.825C170.944 241.739 171.057 241.786 171.141 241.87C171.225 241.954 171.272 242.068 171.272 242.187C171.272 242.306 171.225 242.419 171.141 242.503C171.057 242.587 170.944 242.634 170.825 242.634Z" fill="#CBCBCB"/>
<path d="M85.6361 154.749C106.492 154.749 123.399 137.824 123.399 116.945C123.399 96.0668 106.492 79.1416 85.6361 79.1416C64.7801 79.1416 47.873 96.0668 47.873 116.945C47.873 137.824 64.7801 154.749 85.6361 154.749Z" fill="#6C63FF"/>
<path d="M81.894 131.366C81.0444 131.368 80.2174 131.092 79.5377 130.582L79.4956 130.551L70.6207 123.754C70.2097 123.439 69.8647 123.045 69.6056 122.597C69.3464 122.148 69.1781 121.652 69.1103 121.138C69.0425 120.624 69.0765 120.102 69.2103 119.601C69.3441 119.1 69.5752 118.63 69.8903 118.219C70.2054 117.807 70.5984 117.462 71.0468 117.203C71.4953 116.943 71.9903 116.775 72.5038 116.707C73.0173 116.639 73.5391 116.673 74.0394 116.807C74.5397 116.941 75.0088 117.172 75.4198 117.488L81.1682 121.901L94.752 104.16C95.067 103.749 95.4599 103.404 95.9081 103.144C96.3563 102.885 96.8512 102.717 97.3645 102.649C97.8777 102.581 98.3993 102.615 98.8994 102.749C99.3995 102.883 99.8684 103.114 100.279 103.429L100.28 103.43L100.196 103.547L100.283 103.43C101.112 104.068 101.654 105.009 101.791 106.046C101.927 107.084 101.647 108.133 101.012 108.964L85.0344 129.822C84.6648 130.302 84.1895 130.691 83.6455 130.958C83.1015 131.225 82.5033 131.363 81.8974 131.361L81.894 131.366Z" fill="white"/>
<path d="M310.457 246.35C310.916 245.607 311.457 244.917 312.069 244.293C312.321 244.031 312.588 243.784 312.862 243.544C314.532 242.056 316.567 241.04 318.759 240.601C320.951 240.162 323.22 240.315 325.333 241.045C327.446 241.774 329.327 243.054 330.782 244.753C332.237 246.452 333.214 248.508 333.613 250.709C335.457 243.882 330.656 237.156 325.829 231.99C320.999 226.826 315.48 221.161 315.507 214.084C315.521 210.147 317.445 206.634 320.35 204.03C320.44 203.951 320.529 203.872 320.621 203.796C324.132 200.783 328.649 199.207 333.271 199.383C341.856 199.843 349.353 205.619 354.559 212.471C362.939 223.496 366.611 238.972 360.744 251.522C355.584 262.559 344.579 269.114 333.347 274.383C331.779 275.119 330.214 275.833 328.652 276.525C328.641 276.527 328.63 276.535 328.62 276.538C328.544 276.571 328.469 276.604 328.399 276.638C328.076 276.78 327.754 276.923 327.434 277.063L327.582 277.16L328.044 277.459C327.884 277.362 327.725 277.268 327.565 277.171C327.518 277.142 327.467 277.114 327.42 277.085C321.904 273.771 316.31 270.266 312.499 265.093C308.547 259.722 306.958 252.028 310.457 246.35Z" fill="#F1F1F1"/>
<path d="M347.261 233.877C348.483 236.658 349.293 239.604 349.665 242.619C349.958 245.309 349.848 248.026 349.338 250.683C348.243 256.142 345.854 261.258 342.372 265.6C339.746 268.897 336.713 271.848 333.347 274.383C331.779 275.119 330.214 275.833 328.652 276.525C328.641 276.527 328.63 276.535 328.62 276.538C328.544 276.571 328.469 276.604 328.399 276.638C328.076 276.78 327.754 276.923 327.434 277.063L327.582 277.16L328.044 277.459C327.884 277.362 327.726 277.268 327.565 277.171C327.518 277.142 327.467 277.114 327.42 277.085C328.634 272.834 328.812 268.353 327.94 264.019C327.068 259.685 325.171 255.623 322.408 252.174C319.63 248.768 316.088 246.068 312.069 244.293C312.322 244.031 312.588 243.784 312.862 243.544C314.41 244.255 315.892 245.102 317.291 246.075C322.294 249.537 326.051 254.519 328.005 260.284C329.75 265.514 329.968 271.134 328.633 276.484C328.91 276.303 329.188 276.117 329.458 275.932C334.597 272.463 339.334 268.296 342.901 263.187C345.978 258.868 347.947 253.859 348.635 248.6C349.318 242.854 347.882 237.205 345.32 232.078C342.491 226.594 338.926 221.523 334.724 217.006C330.503 212.364 325.731 208.256 320.514 204.774C320.396 204.695 320.314 204.573 320.283 204.435C320.253 204.296 320.277 204.151 320.35 204.03C320.406 203.919 320.503 203.835 320.621 203.796C320.68 203.781 320.743 203.779 320.803 203.791C320.863 203.803 320.92 203.829 320.969 203.866C321.613 204.297 322.252 204.731 322.883 205.178C328.137 208.902 332.908 213.265 337.088 218.167C341.126 222.892 344.802 228.142 347.261 233.877Z" fill="white"/>
<path d="M234.791 17.5532C239.221 17.5532 242.811 13.9587 242.811 9.52476C242.811 5.09077 239.221 1.49631 234.791 1.49631C230.362 1.49631 226.771 5.09077 226.771 9.52476C226.771 13.9587 230.362 17.5532 234.791 17.5532Z" fill="#F1F1F1"/>
<path d="M334.514 124.993C337.214 124.993 339.403 122.801 339.403 120.098C339.403 117.395 337.214 115.203 334.514 115.203C331.813 115.203 329.624 117.395 329.624 120.098C329.624 122.801 331.813 124.993 334.514 124.993Z" fill="#F1F1F1"/>
<path d="M191.414 138.423C194.115 138.423 196.304 136.231 196.304 133.528C196.304 130.825 194.115 128.633 191.414 128.633C188.714 128.633 186.525 130.825 186.525 133.528C186.525 136.231 188.714 138.423 191.414 138.423Z" fill="#F1F1F1"/>
<path d="M194.175 278H364.553C364.671 278 364.785 277.953 364.869 277.869C364.953 277.785 365 277.671 365 277.552C365 277.434 364.953 277.32 364.869 277.236C364.785 277.152 364.671 277.105 364.553 277.105H194.175C194.056 277.105 193.943 277.152 193.859 277.236C193.775 277.32 193.728 277.434 193.728 277.552C193.728 277.671 193.775 277.785 193.859 277.869C193.943 277.953 194.056 278 194.175 278Z" fill="#CBCBCB"/>
<path d="M345.751 43.2601C345.974 41.67 345.608 40.0531 344.72 38.7156C343.832 37.3781 342.485 36.413 340.934 36.0032C339.384 35.5934 337.736 35.7674 336.305 36.4922C334.874 37.217 333.758 38.4422 333.168 39.9356L319.343 55.8028L323.399 67.1452L337.304 48.605C338.211 48.896 339.171 48.9843 340.116 48.8636C341.061 48.743 341.968 48.4163 342.774 47.9067C343.579 47.3972 344.263 46.717 344.777 45.9142C345.292 45.1113 345.624 44.2054 345.751 43.2601Z" fill="#FFB7B7"/>
<path d="M288.441 104.999L334.335 55.9671L328.145 46.1149L270.581 94.8495L288.441 104.999Z" fill="#3F3D56"/>
<path d="M278.198 75.2077C287.089 75.2077 294.296 67.9923 294.296 59.0918C294.296 50.1912 287.089 42.9758 278.198 42.9758C269.307 42.9758 262.099 50.1912 262.099 59.0918C262.099 67.9923 269.307 75.2077 278.198 75.2077Z" fill="#2F2E41"/>
<path d="M279.492 49.9877C282.956 46.471 287.148 43.7573 291.773 42.0375C294.742 40.9365 297.973 40.2563 301.077 40.8816C304.18 41.5068 307.116 43.6562 307.981 46.7047C308.689 49.1974 307.958 51.8814 306.859 54.2279C305.761 56.5745 304.294 58.7504 303.405 61.1846C302.499 63.6682 302.226 66.3392 302.612 68.9552C302.998 71.5711 304.031 74.049 305.616 76.1641C307.201 78.2792 309.289 79.9644 311.69 81.0667C314.091 82.1691 316.729 82.6537 319.365 82.4766C316.315 82.8859 313.504 84.3205 310.524 85.0841C307.543 85.8477 304.025 85.7959 301.81 83.6582C299.466 81.3964 299.419 77.719 299.532 74.4621C299.701 69.6206 299.869 64.7791 300.038 59.9376C300.124 57.4685 300.197 54.9203 299.307 52.6158C298.418 50.3113 296.304 48.2933 293.836 48.3143C291.966 48.3301 290.31 49.4644 288.811 50.583C287.311 51.7016 285.723 52.8951 283.86 53.0615C281.997 53.2279 279.87 51.8477 280.009 49.9804L279.492 49.9877Z" fill="#2F2E41"/>
<path d="M217.054 167.303C215.508 167.732 213.859 167.58 212.418 166.874C210.978 166.167 209.846 164.957 209.238 163.471C208.629 161.985 208.586 160.328 209.117 158.812C209.648 157.297 210.715 156.029 212.117 155.249L226.025 139.454L237.788 141.998L221.244 158.221C221.65 159.083 221.863 160.024 221.867 160.978C221.871 161.932 221.666 162.875 221.267 163.741C220.867 164.607 220.283 165.374 219.555 165.99C218.827 166.605 217.973 167.053 217.054 167.303H217.054Z" fill="#FFB7B7"/>
<path d="M262.81 110.755L228.147 154.312L217.581 149.456L258.324 85.9571L262.81 110.755Z" fill="#3F3D56"/>
<path d="M235.152 242.281L226.891 242.151L227.884 270.339H235.15L235.152 242.281Z" fill="#FFB7B7"/>
<path d="M237.004 267.964L222.694 267.964H222.693C220.274 267.964 217.955 268.926 216.245 270.638C214.534 272.35 213.573 274.672 213.573 277.093V277.39L237.004 277.391L237.004 267.964Z" fill="#2F2E41"/>
<path d="M289.85 234.805L280.826 240.605L298.878 262.346L304.992 258.416L289.85 234.805Z" fill="#FFB7B7"/>
<path d="M305.27 255.415L293.228 263.154L293.228 263.155C291.192 264.463 289.76 266.527 289.245 268.893C288.729 271.258 289.174 273.732 290.481 275.769L290.641 276.019L310.357 263.347L305.27 255.415Z" fill="#2F2E41"/>
<path d="M293.065 148.732C293.065 148.732 273.014 82.0627 266.57 81.1617C260.126 80.2608 249.743 98.2684 249.743 98.2684C236.281 115.462 222.4 171.158 222.4 171.158C222.4 171.158 245.541 172.607 262.456 181.617C279.372 190.626 299.335 181.161 299.335 181.161L293.065 148.732Z" fill="#3F3D56"/>
<path opacity="0.1" d="M293.065 148.732C293.065 148.732 273.014 82.0627 266.57 81.1617C260.126 80.2608 252.38 98.4511 252.38 98.4511C245.672 126.206 222.4 171.158 222.4 171.158C222.4 171.158 245.541 172.607 262.456 181.617C279.372 190.626 299.335 181.16 299.335 181.16L293.065 148.732Z" fill="black"/>
<path d="M276.614 128.785V162.286L280.553 210.815L300.229 247.523L290.838 254.238L264.007 219.32L253.395 184.649L236.729 261.401L224.207 260.506L232.903 154.091L249.405 124.138L276.614 128.785Z" fill="#2F2E41"/>
<path d="M256.397 96.3821C250.137 102.649 255.95 109.364 255.95 109.364L248.795 125.48L276.968 133.091L286.813 89.0502L280.106 81.8875C266.69 81.4399 266.683 81.1615 266.683 81.1615C264.332 83.4642 256.397 96.3821 256.397 96.3821Z" fill="#6C63FF"/>
<path d="M287.948 84.4876C286.668 83.5421 285.214 82.8601 283.669 82.4812C282.125 82.1023 280.52 82.0339 278.949 82.2801C277.378 82.5263 275.871 83.0822 274.516 83.9155C273.161 84.7488 271.984 85.843 271.054 87.1347C263.972 97.0067 257.423 112.948 266.446 132.829C280.935 164.751 293.543 181.093 298.668 181.092C298.892 181.094 299.115 181.059 299.327 180.988C302.482 179.917 307.044 174.572 307.869 169.862C308.165 168.177 308.095 165.829 306.081 164.216C300.296 159.585 289.912 145.163 286.672 126.181C284.882 115.692 288.354 106.138 291.581 99.9703C292.945 97.4182 293.344 94.4597 292.705 91.6372C292.066 88.8146 290.432 86.3171 288.104 84.6024L287.948 84.4876Z" fill="#3F3D56"/>
<path d="M279.026 73.6245C284.769 70.4818 286.879 63.2737 283.74 57.5248C280.601 51.7758 273.4 49.663 267.657 52.8057C261.915 55.9483 259.804 63.1564 262.943 68.9054C266.083 74.6543 273.283 76.7671 279.026 73.6245Z" fill="#FFB7B7"/>
<path d="M256.676 62.3182H273.787L273.963 59.8588L274.84 62.3182H277.475L277.823 57.4438L279.562 62.3182H284.66V62.0767C284.656 58.6832 283.308 55.4297 280.911 53.0301C278.514 50.6306 275.264 49.2808 271.874 49.277H269.462C266.072 49.2808 262.822 50.6306 260.425 53.0301C258.028 55.4297 256.679 58.6832 256.676 62.0767V62.3182Z" fill="#2F2E41"/>
<path d="M282.075 71.1583L289.377 68.7863V51.0338H275.584L275.926 51.3752C280.677 56.1253 285.961 72.9781 282.075 71.1583Z" fill="#2F2E41"/>
</g>
<defs>
<clipPath id="clip0_53_1351">
<rect width="365" height="278" fill="white"/>
</clipPath>
</defs>
</svg>
